<svg width="922" height="922" xmlns="http://www.w3.org/2000/svg" xmlns:xlink="http://www.w3.org/1999/xlink" overflow="hidden"><defs><clipPath id="clip0"><rect x="1208" y="646" width="922" height="922"/></clipPath></defs><g clip-path="url(#clip0)" transform="translate(-1208 -646)"><rect x="1209.5" y="647.5" width="919" height="919" stroke="#D9D9D9" stroke-width="3.4375" stroke-miterlimit="8" fill="none"/><rect x="1781" y="993" width="154" height="573" fill="#E2F0D9"/><rect x="1399" y="1156" width="154" height="410" fill="#E2F0D9"/><rect x="1972" y="779" width="154" height="785" fill="#E2F0D9"/><rect x="1208" y="1185" width="154" height="381" fill="#E2F0D9"/><rect x="1590" y="1100" width="154" height="466" fill="#E2F0D9"/><path d="M1879 1170.5C1879 1162.49 1885.49 1156 1893.5 1156 1901.51 1156 1908 1162.49 1908 1170.5 1908 1178.51 1901.51 1185 1893.5 1185 1885.49 1185 1879 1178.51 1879 1170.5Z" fill="#2E75B6" fill-rule="evenodd"/><path d="M1733 1285C1733 1277.27 1739.49 1271 1747.5 1271 1755.51 1271 1762 1277.27 1762 1285 1762 1292.73 1755.51 1299 1747.5 1299 1739.49 1299 1733 1292.73 1733 1285Z" fill="#2E75B6" fill-rule="evenodd"/><path d="M1795 1288.5C1795 1280.49 1801.49 1274 1809.5 1274 1817.51 1274 1824 1280.49 1824 1288.5 1824 1296.51 1817.51 1303 1809.5 1303 1801.49 1303 1795 1296.51 1795 1288.5Z" fill="#2E75B6" fill-rule="evenodd"/><path d="M1868 1393.5C1868 1385.49 1874.49 1379 1882.5 1379 1890.51 1379 1897 1385.49 1897 1393.5 1897 1401.51 1890.51 1408 1882.5 1408 1874.49 1408 1868 1401.51 1868 1393.5Z" fill="#2E75B6" fill-rule="evenodd"/><path d="M1820 1144.5C1820 1136.49 1826.27 1130 1834 1130 1841.73 1130 1848 1136.49 1848 1144.5 1848 1152.51 1841.73 1159 1834 1159 1826.27 1159 1820 1152.51 1820 1144.5Z" fill="#2E75B6" fill-rule="evenodd"/><path d="M1935 1245.5C1935 1237.49 1941.49 1231 1949.5 1231 1957.51 1231 1964 1237.49 1964 1245.5 1964 1253.51 1957.51 1260 1949.5 1260 1941.49 1260 1935 1253.51 1935 1245.5Z" fill="#2E75B6" fill-rule="evenodd"/><path d="M1954 1025.5C1954 1017.49 1960.49 1011 1968.5 1011 1976.51 1011 1983 1017.49 1983 1025.5 1983 1033.51 1976.51 1040 1968.5 1040 1960.49 1040 1954 1033.51 1954 1025.5Z" fill="#2E75B6" fill-rule="evenodd"/><path d="M1908 950C1908 942.268 1914.49 936 1922.5 936 1930.51 936 1937 942.268 1937 950 1937 957.732 1930.51 964 1922.5 964 1914.49 964 1908 957.732 1908 950Z" fill="#2E75B6" fill-rule="evenodd"/><path d="M1992 1114.5C1992 1106.49 1998.49 1100 2006.5 1100 2014.51 1100 2021 1106.49 2021 1114.5 2021 1122.51 2014.51 1129 2006.5 1129 1998.49 1129 1992 1122.51 1992 1114.5Z" fill="#2E75B6" fill-rule="evenodd"/><path d="M1574 1368.5C1574 1360.49 1580.49 1354 1588.5 1354 1596.51 1354 1603 1360.49 1603 1368.5 1603 1376.51 1596.51 1383 1588.5 1383 1580.49 1383 1574 1376.51 1574 1368.5Z" fill="#2E75B6" fill-rule="evenodd"/><path d="M1239 1487.5C1239 1479.49 1245.27 1473 1253 1473 1260.73 1473 1267 1479.49 1267 1487.5 1267 1495.51 1260.73 1502 1253 1502 1245.27 1502 1239 1495.51 1239 1487.5Z" fill="#2E75B6" fill-rule="evenodd"/><path d="M1420 1383C1420 1375.27 1426.27 1369 1434 1369 1441.73 1369 1448 1375.27 1448 1383 1448 1390.73 1441.73 1397 1434 1397 1426.27 1397 1420 1390.73 1420 1383Z" fill="#2E75B6" fill-rule="evenodd"/><path d="M1459 1535.5C1459 1527.49 1465.49 1521 1473.5 1521 1481.51 1521 1488 1527.49 1488 1535.5 1488 1543.51 1481.51 1550 1473.5 1550 1465.49 1550 1459 1543.51 1459 1535.5Z" fill="#2E75B6" fill-rule="evenodd"/><path d="M1648 1481C1648 1473.27 1654.27 1467 1662 1467 1669.73 1467 1676 1473.27 1676 1481 1676 1488.73 1669.73 1495 1662 1495 1654.27 1495 1648 1488.73 1648 1481Z" fill="#2E75B6" fill-rule="evenodd"/><path d="M1750 1434.5C1750 1426.49 1756.49 1420 1764.5 1420 1772.51 1420 1779 1426.49 1779 1434.5 1779 1442.51 1772.51 1449 1764.5 1449 1756.49 1449 1750 1442.51 1750 1434.5Z" fill="#2E75B6" fill-rule="evenodd"/><path d="M2065 826.5C2065 818.492 2071.27 812 2079 812 2086.73 812 2093 818.492 2093 826.5 2093 834.508 2086.73 841 2079 841 2071.27 841 2065 834.508 2065 826.5Z" fill="#2E75B6" fill-rule="evenodd"/><path d="M1969 854.5C1969 846.492 1975.27 840 1983 840 1990.73 840 1997 846.492 1997 854.5 1997 862.508 1990.73 869 1983 869 1975.27 869 1969 862.508 1969 854.5Z" fill="#2E75B6" fill-rule="evenodd"/><path d="M1946 741.5C1946 733.492 1952.49 727 1960.5 727 1968.51 727 1975 733.492 1975 741.5 1975 749.508 1968.51 756 1960.5 756 1952.49 756 1946 749.508 1946 741.5Z" fill="#2E75B6" fill-rule="evenodd"/><path d="M1527 1447.5C1527 1439.49 1533.49 1433 1541.5 1433 1549.51 1433 1556 1439.49 1556 1447.5 1556 1455.51 1549.51 1462 1541.5 1462 1533.49 1462 1527 1455.51 1527 1447.5Z" fill="#2E75B6" fill-rule="evenodd"/><path d="M1340 1449C1340 1441.27 1346.49 1435 1354.5 1435 1362.51 1435 1369 1441.27 1369 1449 1369 1456.73 1362.51 1463 1354.5 1463 1346.49 1463 1340 1456.73 1340 1449Z" fill="#2E75B6" fill-rule="evenodd"/><path d="M1227.5 1535.5C1452.74 1509.45 1677.98 1483.4 1820.32 1346.57 1962.65 1209.73 2022.08 962.117 2081.5 714.5" stroke="#C00000" stroke-width="20.625" stroke-miterlimit="8" fill="none" fill-rule="evenodd"/><path d="M2036.87 736.047 2089.74 682.029 2110.37 754.743Z" fill="#C00000" fill-rule="evenodd"/></g></svg>